# xmcd CD database file
#
# Track frame offsets:
#	150
#	21790
#	40422
#	62102
#
# Disc length: 1073 seconds
#
# Revision: 0
# Processed by: cddbd v1.5.1PL0 Copyright (c) Steve Scherf et al.
# Submitted via: CDex 1.51
#
DISCID=2f042f04
DTITLE=ワタナベイビー - エブリモーニング/大粒の涙
DYEAR=1999
DGENRE=Rock
TTITLE0=エブリモーニング
TTITLE1=大粒の涙
TTITLE2=エブリモーニング (instrumental)
TTITLE3=大粒の涙 (instrumental)
EXTD=YEAR: 1999
EXTT0=
EXTT1=
EXTT2=
EXTT3=
PLAYORDER=
